<?xml version="1.0" encoding="UTF-8" standalone="no"?>
<!-- Created with Inkscape (http://www.inkscape.org/) -->

<svg
   xmlns:dc="http://purl.org/dc/elements/1.1/"
   xmlns:cc="http://creativecommons.org/ns#"
   xmlns:rdf="http://www.w3.org/1999/02/22-rdf-syntax-ns#"
   xmlns:svg="http://www.w3.org/2000/svg"
   xmlns="http://www.w3.org/2000/svg"
   xmlns:sodipodi="http://sodipodi.sourceforge.net/DTD/sodipodi-0.dtd"
   xmlns:inkscape="http://www.inkscape.org/namespaces/inkscape"
   width="1024"
   height="1024"
   viewBox="0 0 1024 1024"
   id="svg4224"
   version="1.1"
   inkscape:version="0.91 r13725"
   sodipodi:docname="hat_01.3.svg"
   inkscape:export-filename="/Users/tl/Development/Repository/bitbucket/icon-generator-py/master/hat_01.3.png"
   inkscape:export-xdpi="90"
   inkscape:export-ydpi="90">
  <defs
     id="defs4226" />
  <sodipodi:namedview
     id="base"
     pagecolor="#ffffff"
     bordercolor="#666666"
     borderopacity="1.0"
     inkscape:pageopacity="0.0"
     inkscape:pageshadow="2"
     inkscape:zoom="0.35"
     inkscape:cx="-310.71424"
     inkscape:cy="300.00001"
     inkscape:document-units="px"
     inkscape:current-layer="layer1"
     showgrid="false"
     units="px"
     inkscape:showpageshadow="false"
     inkscape:window-width="1920"
     inkscape:window-height="1151"
     inkscape:window-x="0"
     inkscape:window-y="1"
     inkscape:window-maximized="1" />
  <metadata
     id="metadata4229">
    <rdf:RDF>
      <cc:Work
         rdf:about="">
        <dc:format>image/svg+xml</dc:format>
        <dc:type
           rdf:resource="http://purl.org/dc/dcmitype/StillImage" />
        <dc:title />
      </cc:Work>
    </rdf:RDF>
  </metadata>
  <g
     inkscape:label="Layer 1"
     inkscape:groupmode="layer"
     id="layer1"
     transform="translate(0,-28.362161)">
    <path
       style="fill:#886546;fill-opacity:1"
       sodipodi:nodetypes="cccccccccscccccc"
       inkscape:connector-curvature="0"
       d="M 394.3736,777.3555 C 378.755,802.5049 354.449,841.4947 320.3046,872.5039 353.4116,859.1539 385.9942,838.1885 419.6256,808.4105 467.1314,766.3427 522.059,725.6657 587.5662,684.0311 632.5526,655.4501 679.0666,625.8887 731.5658,609.3123 779.1628,594.2751 829.8836,588.1987 878.917,582.3045 L 918.454,577.3909 C 953.043,572.8535 1010.9574,565.2609 1022.4264,521.4487 1027.0208,503.8921 1021.446,483.1659 1007.127,464.6173 980.4954,430.0967 931.5418,410.2941 872.8634,410.2941 856.3212,410.2941 838.9698,412.0383 821.0938,415.1279 787.1888,422.0365 754.3212,433.4599 729.6162,443.4467 699.4278,455.6451 668.3158,472.2443 634.5248,494.2017 577.6364,531.1619 531.9774,571.7819 498.859,614.9213 477.506,642.7271 458.946,673.4401 440.9902,703.1383 Z"
       id="path22" />
    <path
       style="fill:#76553c;fill-opacity:1"
       sodipodi:nodetypes="ccccccscccccccccccccccccccccccccscccscc"
       inkscape:connector-curvature="0"
       d="M 236.5558,889.5021 C 243.6128,888.9321 250.5784,888.0201 257.51,886.8457 310.1916,858.6751 346.0688,800.9773 366.4644,768.1439 370.1924,762.1359 373.43,756.9487 376.1548,752.8787 388.9918,733.7715 401.1788,713.6039 412.967,694.1205 418.405,685.1255 423.9342,676.0393 429.5546,666.9645 426.0204,666.9987 422.3602,667.0007 418.9522,667.0785 310.4854,669.5575 228.16,632.6789 213.5066,589.6269 211.8194,583.4477 208.0784,574.8207 207.7592,563.5001 201.5232,567.0229 192.4598,572.3241 181.5268,579.2783 171.118,585.8793 169.1684,587.5601 156.7874,596.7147 150.7224,601.4459 144.2014,606.0517 138.102,611.3189 131.8432,616.4263 125.5502,621.6933 119.6218,627.3365 113.4428,632.7517 107.7426,638.6115 102.1906,644.4373 96.3648,650.0577 91.6564,656.3849 86.6402,662.1877 81.624,667.9907 77.896,674.3635 73.735,680.0067 69.8702,685.8209 67.1112,691.8177 64.0558,697.0961 61.183,702.4657 59.7352,707.8581 57.8198,712.4069 55.7564,716.9443 55.1636,721.1967 54.4566,724.6511 53.043,731.5825 52.2336,735.5385 52.2336,735.5385 L 52.1196,736.0857 C 51.789,737.7161 50.2044,738.7649 48.574,738.4343 46.9894,738.1151 45.9634,736.5987 46.2028,735.0141 46.2028,735.0141 46.864,730.7845 48.0268,723.3969 48.631,719.6919 49.0984,715.1089 51.0366,710.2637 52.8264,705.4071 54.183,699.5699 56.942,693.8241 59.8606,688.1695 62.5396,681.7055 66.3132,675.4693 70.3604,669.4271 74.0428,662.5639 78.9564,656.3393 83.87,650.1261 88.5442,643.2971 94.2672,637.2663 99.7508,630.9961 105.3826,624.6915 111.482,618.8659 117.3532,612.7781 123.5778,607.1121 129.7798,601.5827 135.8334,595.8825 142.286,590.9005 148.3054,585.7817 160.5838,575.8519 172.5132,567.1975 182.7806,559.8457 190.6048,554.2433 200.683,544.5493 203.4646,542.9191 204.1144,507.7827 208.1274,462.7053 211.6274,428.9711 150.8856,465.6237 9.9606,565.9449 0.35,696.5603 -2.5116,735.5157 12.2178,773.5819 42.9422,806.6547 88.567,855.7681 154.5066,890.0721 221.9802,890.0721 226.9566,890.0721 231.8132,889.8783 236.5558,889.5021 Z"
       id="path24" />
    <path
       style="fill:#886546;fill-opacity:1"
       sodipodi:nodetypes="ccccsscccc"
       inkscape:connector-curvature="0"
       d="M 327.7848,319.9535 C 335.8222,325.1293 347.7812,322.9973 363.343,313.5463 371.2434,308.7467 380.74,302.7729 391.4338,296.0237 429.101,272.2993 471.646,241.2933 521.8766,216.7479 517.875,217.2609 513.8278,217.5917 509.6212,217.5917 488.4618,217.5917 468.112,211.2415 446.565,204.5153 425.9302,198.0739 404.5998,191.4161 382.2206,190.6979 L 379.2224,190.6523 C 348.0648,190.6523 321.8094,206.2253 301.6762,236.1517 300.0004,268.6543 311.22,309.2255 327.7848,319.9535 Z"
       id="path26" />
    <path
       style="fill:#604839;fill-opacity:1"
       sodipodi:nodetypes="ccccccccccscccc"
       inkscape:connector-curvature="0"
       d="M 236.2716,508.2699 C 258.8218,534.5251 332.0636,591.6387 524.538,542.6963 551.4546,516.8173 582.863,492.1237 618.6034,468.9009 653.3408,446.3281 685.4216,429.2273 716.659,416.5955 734.0676,409.5615 755.489,401.8205 778.5066,395.3109 761.1324,323.7955 751.8424,277.8427 750.1894,270.3983 739.0738,220.3501 679.6544,211.4007 638.419,216.7931 580.3676,224.3745 527.0134,252.8301 476.817,281.3541 448.8402,297.2463 421.5702,314.2673 394.346,331.4023 383.561,338.1969 373.9846,344.2277 366.0044,349.0729 353.1218,356.8937 341.4932,360.8155 331.21,360.8155 324.1076,360.8155 317.6548,358.9457 311.8862,355.2065 293.805,343.4981 278.9456,313.8617 277.2126,287.6749 261.3834,326.0467 251.3716,372.3371 244.9474,408.4927 241.7666,437.5411 238.1642,475.1057 236.2716,508.2699 Z"
       id="path28" />
  </g>
</svg>
